<svg width="32" height="32" viewBox="0 0 32 32" fill="none" xmlns="http://www.w3.org/2000/svg">
<path d="M11.1779 8.18952C10.699 8.1896 10.3062 8.48063 10.132 8.88386H9.10364C8.47326 8.88395 7.9544 9.40291 7.95422 10.0333C7.95422 10.6638 8.47316 11.1826 9.10364 11.1827H10.7306C10.3734 11.748 9.7768 12.1133 9.10364 12.1133C8.47316 12.1134 7.95422 12.6323 7.95422 13.2628C7.95439 13.8931 8.47326 14.4121 9.10364 14.4122C9.91503 14.4122 10.6701 14.1703 11.3146 13.7647C11.8905 14.1766 12.5633 14.4122 13.2628 14.4122C13.8931 14.412 14.4121 13.8931 14.4122 13.2628C14.4122 12.6323 13.8932 12.1135 13.2628 12.1133C13.1404 12.1133 13.0171 12.0828 12.8898 12.0274C13.0255 11.7605 13.1384 11.4785 13.2189 11.1827H13.2521C13.8962 11.1827 14.4015 10.6605 14.4015 10.0333C14.4013 9.40286 13.8825 8.88386 13.2521 8.88386H12.2247C12.0505 8.48047 11.6569 8.18952 11.1779 8.18952ZM15.8829 13.1807L15.8839 13.1895C15.9081 14.1908 15.6757 14.8548 15.2657 15.2657C14.856 15.6762 14.1958 15.908 13.2003 15.8839L13.1906 16.2637L13.2003 15.8829H9.18567L9.1759 15.8839C8.20356 15.9079 7.55123 15.6771 7.13879 15.2657C6.7249 14.8526 6.48254 14.1873 6.48254 13.1905V9.18562C6.48254 8.2117 6.724 7.55549 7.13977 7.13972C7.55554 6.72395 8.21176 6.48249 9.18567 6.48249H13.1808C14.1834 6.48249 14.8506 6.72554 15.2648 7.13972C15.6771 7.55207 15.9079 8.20351 15.8839 9.17585L16.2667 9.18562L15.8829 9.17585V13.1807Z" fill="#11ECB5" stroke="#11ECB5" stroke-width="0.766346"/>
<path d="M13.2523 27.3019C8.88922 27.3019 5.33337 23.7461 5.33337 19.383C5.33337 18.9641 5.68078 18.6167 6.09972 18.6167C6.51866 18.6167 6.86607 18.9641 6.86607 19.383C6.86607 22.4075 8.97096 24.9416 11.8013 25.6057L11.5254 25.1459C11.3109 24.7781 11.4233 24.3081 11.7911 24.0935C12.1487 23.8789 12.629 23.9913 12.8436 24.3591L13.9164 26.1473C14.0595 26.3823 14.0595 26.6786 13.9267 26.9136C13.7836 27.1486 13.5282 27.3019 13.2523 27.3019Z" fill="#11ECB5"/>
<path d="M26.5341 14.0186C26.1152 14.0186 25.7677 13.6712 25.7677 13.2522C25.7677 10.2277 23.6629 7.69368 20.8325 7.02951L21.1084 7.48932C21.3229 7.85716 21.2105 8.32719 20.8427 8.54177C20.4851 8.75634 20.0048 8.64395 19.7903 8.2761L18.7174 6.48796C18.5743 6.25295 18.5743 5.95663 18.7071 5.72161C18.8502 5.4866 19.1056 5.33333 19.3815 5.33333C23.7446 5.33333 27.3004 8.88918 27.3004 13.2522C27.3004 13.6712 26.953 14.0186 26.5341 14.0186Z" fill="#11ECB5"/>
<path d="M21.3448 16.1659C18.4837 16.1659 16.1541 18.4854 16.1541 21.3567C16.1541 24.2177 18.4735 26.5474 21.3448 26.5474C24.2058 26.5474 26.5355 24.2279 26.5355 21.3567C26.5355 18.4854 24.216 16.1659 21.3448 16.1659ZM23.8788 23.8192C23.5008 24.0031 23.0409 23.8601 22.8468 23.4718L22.6731 23.1244H20.0267L19.8529 23.4718C19.7201 23.7374 19.4442 23.8907 19.1683 23.8907C19.0559 23.8907 18.9333 23.8601 18.8312 23.809C18.4531 23.6148 18.2998 23.155 18.4837 22.777L20.6704 18.4139C20.8032 18.1584 21.0689 17.995 21.355 17.995C21.6411 17.995 21.9068 18.1584 22.0396 18.4241L24.2262 22.7872C24.4102 23.1652 24.2569 23.625 23.8788 23.8192Z" fill="#11ECB5"/>
<path d="M20.792 21.5904H21.9057L21.3438 20.4766L20.792 21.5904Z" fill="#11ECB5"/>
</svg>
