<svg width="20" height="20" viewBox="0 0 20 20" fill="none" xmlns="http://www.w3.org/2000/svg">
<path d="M2.5 5.2085L7.68476 8.14622C9.59619 9.22924 10.4038 9.22924 12.3152 8.14622L17.5 5.2085" stroke="black" stroke-width="1.5" stroke-linejoin="round"/>
<path d="M2.51183 10.8152C2.56085 13.1144 2.58537 14.2639 3.43372 15.1155C4.28206 15.9671 5.46274 15.9967 7.82412 16.056C9.27947 16.0926 10.7205 16.0926 12.1759 16.056C14.5373 15.9967 15.7179 15.9671 16.5663 15.1155C17.4146 14.2639 17.4392 13.1144 17.4881 10.8152C17.504 10.0759 17.504 9.34106 17.4881 8.60179C17.4392 6.30264 17.4146 5.15306 16.5663 4.30149C15.7179 3.44992 14.5373 3.42026 12.1759 3.36092C10.7205 3.32435 9.27947 3.32435 7.82411 3.36092C5.46274 3.42024 4.28206 3.4499 3.43371 4.30148C2.58536 5.15305 2.56085 6.30263 2.51182 8.60179C2.49606 9.34106 2.49606 10.0759 2.51183 10.8152Z" stroke="black" stroke-width="1.5" stroke-linejoin="round"/>
</svg>
