<svg width="58" height="46" viewBox="0 0 58 46" fill="none" xmlns="http://www.w3.org/2000/svg">
<path d="M5.86719 14.4961L7.13477 44.5H4.46484L5.79102 13.2598L5.80273 12.9766L5.86719 14.4961ZM44.6162 21.29C45.8263 23.0895 46.7374 25.1098 47.2598 27.2725C46.9775 27.2587 46.6909 27.25 46.4004 27.25C39.2857 27.25 32.9706 30.648 29.001 35.8857C27.3522 33.705 25.3015 31.8486 22.9502 30.4219L22.3428 30.0664C19.2723 28.3364 15.827 27.3757 12.3057 27.2617L11.6006 27.25H11.5996C11.3087 27.25 11.0218 27.2586 10.7393 27.2725C11.2615 25.1099 12.1728 23.0894 13.3828 21.29L28.4463 27.2695L29 27.4893L29.5537 27.2695L44.6162 21.29ZM53.9297 11.5L28.999 21.3857L7.91797 13.0381L5.83496 12.2129L5.83594 12.1934L4.84375 11.8008L4.0752 11.4971L29 1.61328L53.9297 11.5ZM29 7.125C28.0252 7.125 27.0632 7.31522 26.2891 7.69629C25.6474 8.01225 24.7242 8.68757 24.6113 9.82812L24.5996 10.0625L24.6113 10.2969C24.7242 11.4374 25.6474 12.1127 26.2891 12.4287C27.0632 12.8098 28.0252 13 29 13C29.9748 13 30.9368 12.8098 31.7109 12.4287C32.3954 12.0917 33.4004 11.3458 33.4004 10.0625C33.4004 8.77923 32.3954 8.03332 31.7109 7.69629C30.9368 7.31522 29.9748 7.125 29 7.125Z" stroke="url(#paint0_linear_458_9334)" stroke-width="3"/>
<defs>
<linearGradient id="paint0_linear_458_9334" x1="29" y1="0" x2="29" y2="46" gradientUnits="userSpaceOnUse">
<stop stop-color="#11B6EC"/>
<stop offset="1" stop-color="#11ECB5"/>
</linearGradient>
</defs>
</svg>
