<svg width="173" height="45" viewBox="0 0 173 45" fill="none" xmlns="http://www.w3.org/2000/svg">
<path d="M44.4108 30.5608L36.3925 22.5118C36.3925 22.5118 35.9291 21.8881 35.127 20.869C32.7506 17.8318 33.5428 14.2781 33.5863 14.1152L28.0097 19.707C27.2696 20.4517 26.854 21.4603 26.854 22.5118C26.854 23.5633 27.2696 24.5719 28.0097 25.3166L39.7511 37.0981C39.9075 37.2566 40.0961 37.3793 40.3041 37.4581C40.512 37.5369 40.7345 37.5697 40.9562 37.5545C41.178 37.5392 41.3939 37.4761 41.5892 37.3696C41.7845 37.2631 41.9546 37.1156 42.0879 36.9372C43.139 35.4953 44.0277 33.941 44.7376 32.3029C44.864 32.0132 44.9004 31.692 44.8421 31.3813C44.7838 31.0705 44.6335 30.7846 44.4108 30.5608Z" fill="#11ECB5"/>
<path d="M44.6802 12.7684C43.9614 11.1365 43.0655 9.58897 42.0087 8.15396C41.8747 7.97688 41.7044 7.83071 41.5092 7.72534C41.3141 7.61996 41.0986 7.55783 40.8775 7.54314C40.6563 7.52845 40.4346 7.56155 40.2273 7.6402C40.02 7.71885 39.832 7.84121 39.6759 7.99902L33.5804 14.1092C33.5408 14.2721 32.7388 17.8258 35.1211 20.8631C35.9132 21.8821 36.3865 22.5058 36.3865 22.5058L44.3613 14.5125C44.5833 14.2878 44.7326 14.0011 44.7894 13.6899C44.8463 13.3787 44.8082 13.0575 44.6802 12.7684Z" fill="#99F2D6"/>
<path d="M16.8604 25.3901L11.2838 30.9819C11.3234 30.819 12.1254 27.2653 9.74311 24.2281C8.94107 23.209 8.47767 22.5853 8.47767 22.5853L0.453359 14.5363C0.232232 14.3123 0.0833901 14.0268 0.026177 13.7168C-0.031036 13.4068 0.00602589 13.0868 0.132546 12.7982C0.842637 11.1603 1.72986 9.60555 2.77827 8.1619C2.91143 7.98301 3.08152 7.83506 3.27691 7.72815C3.47229 7.62125 3.68839 7.5579 3.91042 7.54243C4.13245 7.52697 4.35519 7.55976 4.56344 7.63855C4.77168 7.71735 4.96052 7.8403 5.11705 7.99901L16.8604 19.7824C17.5999 20.5271 18.0151 21.5353 18.0151 22.5863C18.0151 23.6373 17.5999 24.6455 16.8604 25.3901Z" fill="#11ECB5"/>
<path d="M11.2838 30.9819L5.18438 37.0961C5.02846 37.2544 4.84038 37.3772 4.63292 37.456C4.42547 37.5349 4.20351 37.568 3.98216 37.5531C3.7608 37.5382 3.54524 37.4757 3.35015 37.3697C3.15505 37.2638 2.98499 37.1169 2.85154 36.9392C1.79702 35.5026 0.902522 33.9546 0.184033 32.3227C0.0546336 32.0329 0.0158347 31.7105 0.072752 31.3981C0.129669 31.0857 0.279629 30.7979 0.502866 30.5727L8.46975 22.5853C8.46975 22.5853 8.93315 23.209 9.73518 24.2281C12.1254 27.2653 11.3234 30.819 11.2838 30.9819Z" fill="#99F2D6"/>
<path d="M36.7271 42.2111C35.2879 43.2632 33.7379 44.1538 32.105 44.867C31.8167 44.9939 31.497 45.0311 31.1874 44.9738C30.8777 44.9164 30.5924 44.7671 30.3683 44.5452L22.344 36.4962C22.344 36.4962 21.7241 36.0314 20.7062 35.2269C17.6783 32.8432 14.1375 33.6377 13.9731 33.6794L19.5477 28.0936C19.9144 27.7244 20.3502 27.4314 20.8301 27.2315C21.3099 27.0316 21.8244 26.9286 22.344 26.9286C22.8636 26.9286 23.378 27.0316 23.8579 27.2315C24.3377 27.4314 24.7735 27.7244 25.1402 28.0936L36.8875 39.8711C37.0449 40.0279 37.1667 40.2169 37.2448 40.4251C37.3229 40.6333 37.3555 40.8559 37.3402 41.0779C37.325 41.2998 37.2624 41.5159 37.1566 41.7114C37.0508 41.9069 36.9044 42.0774 36.7271 42.2111Z" fill="#11ECB5"/>
<path d="M22.344 36.4962L14.3751 44.4955C14.1505 44.7187 13.8639 44.8685 13.5528 44.9252C13.2418 44.9819 12.9209 44.9429 12.6324 44.8133C11.0046 44.094 9.46057 43.1974 8.02813 42.1396C7.85114 42.0053 7.70497 41.8345 7.59953 41.6386C7.49409 41.4428 7.43185 41.2265 7.41701 41.0044C7.40218 40.7823 7.4351 40.5596 7.51354 40.3514C7.59199 40.1432 7.71413 39.9543 7.87169 39.7976L13.9672 33.6794C14.1315 33.6397 17.6724 32.8352 20.7003 35.2269C21.7241 36.0393 22.344 36.4962 22.344 36.4962Z" fill="#99F2D6"/>
<path d="M8.03408 2.78864C7.85587 2.92237 7.70854 3.09309 7.60214 3.28916C7.49574 3.48523 7.43278 3.70202 7.41755 3.92473C7.40232 4.14744 7.43519 4.37082 7.51391 4.57962C7.59262 4.78843 7.71534 4.97773 7.87367 5.1346L19.621 16.9141C20.3634 17.6564 21.369 18.0733 22.4172 18.0733C23.4655 18.0733 24.4711 17.6564 25.2135 16.9141L30.7881 11.3223C30.6237 11.362 27.0829 12.1665 24.055 9.77488C23.0391 8.98031 22.4172 8.50556 22.4172 8.50556L14.3929 0.456588C14.1692 0.234111 13.884 0.0842654 13.5742 0.0265233C13.2645 -0.0312188 12.9446 0.00581085 12.6562 0.1328C11.0227 0.844662 9.47258 1.73535 8.03408 2.78864Z" fill="#11ECB5"/>
<path d="M22.4172 8.50556C22.4172 8.50556 23.0391 8.97038 24.055 9.77488C27.0829 12.1586 30.6237 11.364 30.7881 11.3223L36.8836 5.20214C37.0407 5.04602 37.1627 4.85791 37.2412 4.65048C37.3197 4.44306 37.353 4.22116 37.3387 3.99975C37.3244 3.77834 37.263 3.56257 37.1585 3.36701C37.054 3.17145 36.909 3.00064 36.7331 2.86611C35.3023 1.80626 33.7588 0.908871 32.1308 0.190408C31.8421 0.0607749 31.5211 0.0219448 31.21 0.0790384C30.8988 0.136132 30.6123 0.286468 30.3881 0.510221L22.4172 8.50556Z" fill="#99F2D6"/>
<path d="M76.922 12.2857C76.5511 11.667 76.0342 11.1492 75.4169 10.778C74.7919 10.4014 74.0746 10.2067 73.3455 10.2159H60.1822C59.4539 10.2077 58.7379 10.4038 58.1147 10.782C57.4966 11.1521 56.9795 11.6701 56.6097 12.2897C56.2335 12.9165 56.0381 13.6358 56.0453 14.3675V27.5692C56.0391 28.3007 56.2344 29.0197 56.6097 29.647C56.9795 30.2666 57.4966 30.7846 58.1147 31.1547C58.7379 31.5329 59.4539 31.729 60.1822 31.7208H73.3455C74.075 31.7288 74.7923 31.5327 75.4169 31.1547C76.0342 30.7835 76.5511 30.2657 76.922 29.647C77.2972 29.0197 77.4925 28.3007 77.4864 27.5692V14.3635C77.4925 13.632 77.2972 12.913 76.922 12.2857ZM73.5237 27.3825C73.5248 27.4309 73.5146 27.4789 73.494 27.5227C73.4734 27.5665 73.4429 27.6049 73.4049 27.6348C73.3324 27.7029 73.2369 27.7412 73.1376 27.742H60.3307C60.2837 27.7424 60.2371 27.7331 60.1939 27.7146C60.1506 27.6962 60.1116 27.669 60.0792 27.6348C60.0452 27.6024 60.0182 27.5632 60.0002 27.5198C59.9821 27.4763 59.9733 27.4296 59.9743 27.3825V14.5423C59.9736 14.4947 59.9825 14.4474 60.0005 14.4033C60.0186 14.3593 60.0454 14.3194 60.0792 14.286C60.1123 14.2531 60.1516 14.227 60.1947 14.2092C60.2379 14.1915 60.2841 14.1825 60.3307 14.1827H73.1376C73.2364 14.1825 73.3318 14.2193 73.4049 14.286C73.4427 14.317 73.4731 14.3561 73.4937 14.4005C73.5142 14.4448 73.5245 14.4933 73.5237 14.5423V27.3825Z" fill="white"/>
<path d="M101.637 12.3155C101.264 11.6931 100.742 11.1746 100.118 10.8078C99.4882 10.4309 98.7674 10.2351 98.0343 10.2417H81.3263C81.1767 10.2422 81.0335 10.302 80.9277 10.4081C80.822 10.5141 80.7624 10.6578 80.7619 10.8078V31.1507C80.7624 31.3007 80.822 31.4444 80.9277 31.5505C81.0335 31.6565 81.1767 31.7163 81.3263 31.7169H84.1284C84.278 31.7163 84.4212 31.6565 84.5269 31.5505C84.6327 31.4444 84.6923 31.3007 84.6928 31.1507V24.3691L98.0343 24.3393C98.7656 24.346 99.4851 24.1552 100.118 23.7871C100.746 23.4258 101.27 22.9061 101.637 22.2794C102.014 21.647 102.21 20.9227 102.205 20.1857V14.3873C102.211 13.6572 102.014 12.9399 101.637 12.3155ZM98.2423 20.0367C98.2432 20.0831 98.2329 20.1291 98.2122 20.1706C98.1915 20.2122 98.161 20.248 98.1234 20.2751C98.0467 20.3339 97.9527 20.3654 97.8561 20.3645H85.0493C84.9572 20.3677 84.8673 20.3357 84.7978 20.2751C84.763 20.2463 84.7353 20.2098 84.7171 20.1684C84.6989 20.127 84.6906 20.0819 84.6928 20.0367V14.5423C84.6923 14.4951 84.7011 14.4483 84.7188 14.4045C84.7365 14.3608 84.7627 14.321 84.7959 14.2876C84.8291 14.2541 84.8686 14.2276 84.9121 14.2096C84.9556 14.1916 85.0022 14.1825 85.0493 14.1827H97.8561C97.9549 14.1825 98.0503 14.2194 98.1234 14.286C98.1605 14.3176 98.1904 14.3569 98.2109 14.4011C98.2314 14.4453 98.2421 14.4935 98.2423 14.5423V20.0367Z" fill="white"/>
<path d="M172.426 12.2857C172.052 11.6645 171.53 11.1463 170.907 10.778C170.275 10.4022 169.553 10.2077 168.819 10.2159H155.686C154.961 10.2089 154.249 10.4035 153.628 10.778C153.011 11.1488 152.495 11.6667 152.125 12.2857C151.748 12.912 151.551 13.6316 151.559 14.3635V31.1507C151.559 31.2253 151.573 31.299 151.602 31.3678C151.63 31.4367 151.672 31.4992 151.725 31.5518C151.777 31.6044 151.84 31.646 151.909 31.6743C151.977 31.7027 152.051 31.7171 152.125 31.7169H154.923C154.998 31.7171 155.071 31.7027 155.14 31.6743C155.208 31.646 155.271 31.6043 155.323 31.5516C155.376 31.499 155.417 31.4365 155.445 31.3677C155.474 31.2989 155.488 31.2252 155.488 31.1507V24.4883H169.041V31.1507C169.041 31.3009 169.101 31.4449 169.207 31.5511C169.312 31.6572 169.456 31.7169 169.606 31.7169H172.435C172.51 31.7171 172.583 31.7027 172.652 31.6743C172.72 31.646 172.783 31.6043 172.835 31.5516C172.888 31.499 172.929 31.4365 172.957 31.3677C172.986 31.2989 173 31.2252 173 31.1507V14.3635C173.005 13.6308 172.806 12.9112 172.426 12.2857ZM169.031 20.5453H155.478V14.5423C155.477 14.4947 155.486 14.4474 155.504 14.4034C155.522 14.3593 155.549 14.3194 155.583 14.286C155.617 14.2528 155.656 14.2265 155.7 14.2088C155.744 14.1911 155.791 14.1822 155.838 14.1827H168.641C168.741 14.182 168.837 14.2189 168.911 14.286C168.948 14.3172 168.979 14.3563 169 14.4006C169.02 14.4449 169.031 14.4933 169.031 14.5423V20.5453Z" fill="white"/>
<path d="M124.121 10.2159H103.809C103.659 10.2164 103.516 10.2762 103.41 10.3823C103.305 10.4883 103.245 10.632 103.245 10.782V13.6206C103.245 13.7706 103.305 13.9143 103.41 14.0203C103.516 14.1264 103.659 14.1862 103.809 14.1867H112V31.1547C112 31.305 112.06 31.449 112.166 31.5551C112.272 31.6613 112.416 31.7208 112.566 31.7208H115.408C115.557 31.7203 115.701 31.6605 115.806 31.5544C115.912 31.4484 115.972 31.3047 115.972 31.1547V14.1887H124.121C124.271 14.1882 124.414 14.1284 124.52 14.0223C124.626 13.9163 124.685 13.7726 124.686 13.6226V10.778C124.684 10.6287 124.624 10.486 124.518 10.3808C124.413 10.2756 124.27 10.2164 124.121 10.2159Z" fill="white"/>
<path d="M148.147 30.3403L142.998 24.3413H144.186C144.917 24.3479 145.637 24.1572 146.269 23.7891C146.898 23.4273 147.421 22.9077 147.788 22.2814C148.164 21.6486 148.36 20.9243 148.353 20.1877V14.3873C148.361 13.6556 148.165 12.936 147.788 12.3095C147.415 11.6876 146.893 11.1693 146.269 10.8019C145.64 10.425 144.919 10.2291 144.186 10.2357H127.488C127.414 10.2355 127.34 10.2499 127.271 10.2783C127.203 10.3066 127.14 10.3482 127.087 10.4008C127.035 10.4534 126.993 10.5159 126.965 10.5848C126.936 10.6536 126.921 10.7273 126.921 10.8019V31.1507C126.921 31.2252 126.936 31.299 126.965 31.3678C126.993 31.4367 127.035 31.4992 127.087 31.5518C127.14 31.6044 127.203 31.646 127.271 31.6743C127.34 31.7027 127.414 31.7171 127.488 31.7169H130.29C130.44 31.7169 130.583 31.6572 130.689 31.551C130.795 31.4449 130.854 31.3009 130.854 31.1507V24.3691H131.419L137.865 24.3532L143.697 31.3335C143.796 31.4538 143.922 31.5502 144.063 31.6156C144.206 31.6828 144.361 31.7174 144.519 31.7169H147.489C147.726 31.7169 147.953 31.6225 148.121 31.4545C148.288 31.2865 148.382 31.0586 148.382 30.821C148.347 30.643 148.265 30.4774 148.147 30.3403ZM130.854 14.5423C130.853 14.4948 130.861 14.4474 130.879 14.4033C130.897 14.3592 130.923 14.3193 130.957 14.286C130.991 14.2527 131.03 14.2263 131.074 14.2086C131.117 14.1908 131.164 14.182 131.211 14.1827H144.018C144.116 14.184 144.211 14.2206 144.285 14.286C144.322 14.3176 144.352 14.3569 144.372 14.4011C144.393 14.4453 144.404 14.4935 144.404 14.5423V20.0367C144.405 20.0831 144.395 20.1291 144.374 20.1706C144.353 20.2122 144.323 20.248 144.285 20.2751C144.208 20.3332 144.114 20.3646 144.018 20.3645H131.209C131.116 20.3672 131.026 20.3353 130.955 20.2751C130.921 20.2462 130.894 20.2096 130.876 20.1682C130.858 20.1268 130.85 20.0818 130.852 20.0367L130.854 14.5423Z" fill="white"/>
</svg>
