<svg width="34" height="32" viewBox="0 0 34 32" fill="none" xmlns="http://www.w3.org/2000/svg">
<path d="M22.6811 26.4846L1.26841 11.7141C-0.90151 10.2173 -0.163882 7.1009 2.54195 6.36805L25.2998 0.191308C25.7819 0.0173567 26.2985 -0.0391113 26.8068 0.0265949C27.315 0.0923011 27.8003 0.278284 28.2224 0.56911C28.6443 0.859936 28.9909 1.24721 29.2332 1.6988C29.4755 2.15039 29.6067 2.65327 29.6158 3.16569L28.267 24.1117C28.1071 26.5979 24.851 27.9813 22.6811 26.4846Z" fill="white"/>
<path d="M15.8897 30.1305L3.27477 5.46057C2.98641 4.8962 2.85952 4.26314 2.90808 3.63123C2.95665 2.99931 3.1788 2.39308 3.55001 1.87941C3.92124 1.36573 4.42711 0.964544 5.01185 0.7201C5.5966 0.475657 6.23748 0.397454 6.86385 0.494121L30.2424 4.10228C30.7806 4.18537 31.2914 4.39502 31.7329 4.714C32.1743 5.03299 32.5337 5.4522 32.7816 5.93716C33.0294 6.42212 33.1587 6.95898 33.1585 7.50361C33.1584 8.04822 33.029 8.58506 32.7811 9.06993L22.0115 30.1317C21.7223 30.6944 21.2835 31.1666 20.7435 31.4962C20.2034 31.8258 19.5829 32.0001 18.9502 32C18.3175 31.9999 17.6971 31.8254 17.1571 31.4956C16.6172 31.1657 16.1786 30.6934 15.8897 30.1305Z" fill="white"/>
<path d="M23.5792 8.72696L19.0904 8.00003L13.5792 9.57015L15.779 14.0856L20.9302 17.8153C21.0439 17.8967 21.1689 17.959 21.3008 18.0001L23.2574 13.9853L23.5792 8.72696Z" fill="#0F172A"/>
</svg>
