<svg width="366" height="797" viewBox="0 0 366 797" fill="none" xmlns="http://www.w3.org/2000/svg">
<g opacity="0.8" clip-path="url(#clip0_177_3434)">
<g opacity="0.8">
<g clip-path="url(#clip1_177_3434)">
<path d="M116.112 11.068L-20.9935 148.174C-20.9935 148.174 -31.6325 156.067 -48.9637 169.795C-100.7 210.549 -161.274 196.821 -164.019 196.135L-68.7831 291.371C-42.4431 317.797 0.370298 317.797 26.7962 291.371L227.564 90.7746C238.975 79.3634 237.86 60.3162 224.819 50.8784C200.366 33.0324 173.94 17.8461 145.798 5.57689C135.76 1.11538 123.92 3.26034 116.112 11.068Z" stroke="#E2E8F0" stroke-opacity="0.3" stroke-width="7.657" stroke-miterlimit="10"/>
<path d="M-156.812 762.232L-19.7065 625.126C-19.7065 625.126 -9.06747 617.233 8.26378 603.505C60.0002 562.751 120.574 576.479 123.319 577.165L28.0832 481.929C1.74309 455.503 -41.0703 455.503 -67.4961 481.929L-268.178 682.526C-279.59 693.937 -278.474 712.984 -265.433 722.508C-240.98 740.354 -214.554 755.54 -186.413 767.809C-176.374 772.099 -164.62 770.04 -156.812 762.232Z" stroke="#E2E8F0" stroke-opacity="0.3" stroke-width="7.657" stroke-miterlimit="10"/>
<g opacity="0.84">
<mask id="mask0_177_3434" style="mask-type:luminance" maskUnits="userSpaceOnUse" x="-25" y="571" width="264" height="202">
<path d="M-24.7686 571.073H238.632V772.442H-24.7686V571.073Z" fill="white"/>
</mask>
<g mask="url(#mask0_177_3434)">
<path d="M146.313 766.865C174.284 754.51 200.624 739.152 224.905 721.22C237.774 711.697 238.89 692.735 227.564 681.324L123.491 577.165H123.405C120.574 576.479 60.0859 562.751 8.34954 603.505C-9.06751 617.233 -19.6207 625.126 -19.6207 625.126L116.455 761.374C124.263 769.268 136.103 771.327 146.313 766.865Z" stroke="#E2E8F0" stroke-opacity="0.3" stroke-width="7.657" stroke-miterlimit="10"/>
</g>
</g>
<path d="M355.232 250.188L218.126 387.294C218.126 387.294 210.233 397.933 196.505 415.264C155.751 467 169.479 527.574 170.165 530.319L74.929 435.083C48.5032 408.743 48.5032 365.93 74.929 339.504L275.525 138.736C286.937 127.325 305.984 128.44 315.508 141.481C333.354 165.934 348.54 192.36 360.723 220.502C365.185 230.54 363.04 242.38 355.232 250.188Z" stroke="#E2E8F0" stroke-opacity="0.3" stroke-width="7.657" stroke-miterlimit="10"/>
<g opacity="0.84">
<mask id="mask1_177_3434" style="mask-type:luminance" maskUnits="userSpaceOnUse" x="164" y="382" width="202" height="264">
<path d="M164.074 382.231H365.442V645.632H164.074V382.231Z" fill="white"/>
</mask>
<g mask="url(#mask1_177_3434)">
<path d="M359.865 553.227C347.51 581.198 332.152 607.538 314.221 631.819C304.697 644.688 285.736 645.804 274.324 634.478L170.165 530.405V530.319C169.479 527.488 155.751 467 196.505 415.264C210.233 397.847 218.126 387.294 218.126 387.294L354.374 523.455C362.268 531.263 364.327 543.103 359.865 553.227Z" stroke="#E2E8F0" stroke-opacity="0.3" stroke-width="7.657" stroke-miterlimit="10"/>
</g>
</g>
</g>
</g>
</g>
<defs>
<clipPath id="clip0_177_3434">
<rect width="366" height="797" fill="white" transform="matrix(-1 0 0 1 366 0)"/>
</clipPath>
<clipPath id="clip1_177_3434">
<rect width="773.3" height="773.3" fill="white" transform="matrix(-1 0 0 1 366.3 0)"/>
</clipPath>
</defs>
</svg>
