<svg width="24" height="24" viewBox="0 0 24 24" fill="none" xmlns="http://www.w3.org/2000/svg">
<path d="M12.0368 20.9991L11.514 20.5509C10.7932 19.9474 4.5 14.5124 4.5 10.5368C4.5 6.37433 7.87433 3 12.0368 3C16.1992 3 19.5735 6.37433 19.5735 10.5368C19.5735 14.5124 13.2803 19.9475 12.5626 20.5539L12.0368 20.9991ZM12.0368 4.62967C8.77591 4.63336 6.13339 7.27588 6.1297 10.5367C6.1297 13.0343 10.0015 17.0241 12.0368 18.8502C14.072 17.0234 17.9438 13.0313 17.9438 10.5367C17.9401 7.27588 15.2976 4.63339 12.0368 4.62967Z" fill="black"/>
<path d="M12.0367 13.5243C10.3867 13.5243 9.04919 12.1868 9.04919 10.5368C9.04919 8.88687 10.3867 7.54932 12.0367 7.54932C13.6867 7.54932 15.0242 8.88687 15.0242 10.5368C15.0242 12.1868 13.6867 13.5243 12.0367 13.5243ZM12.0367 9.04304C11.2117 9.04304 10.5429 9.71181 10.5429 10.5368C10.5429 11.3618 11.2117 12.0305 12.0367 12.0305C12.8617 12.0305 13.5305 11.3618 13.5305 10.5368C13.5305 9.71181 12.8617 9.04304 12.0367 9.04304Z" fill="black"/>
</svg>
